<?xml version="1.0" standalone="no"?>
<!DOCTYPE svg PUBLIC "-//W3C//DTD SVG 20010904//EN"
 "http://www.w3.org/TR/2001/REC-SVG-20010904/DTD/svg10.dtd">
<svg version="1.0" xmlns="http://www.w3.org/2000/svg"
 width="1200.000000pt" height="1200.000000pt" viewBox="0 0 1200.000000 1200.000000"
 preserveAspectRatio="xMidYMid meet">

<g transform="translate(0.000000,1200.000000) scale(0.100000,-0.100000)"
fill="#000000" stroke="none">
<path d="M2320 10989 c-167 -21 -336 -72 -480 -144 -423 -213 -708 -583 -813
-1054 l-21 -96 -4 -4115 c-2 -3030 0 -4131 8 -4175 37 -193 202 -358 395 -395
44 -8 1146 -10 4175 -8 l4115 3 100 23 c379 87 683 280 904 574 131 175 219
369 273 603 l23 100 3 4115 c2 3029 0 4131 -8 4175 -36 191 -197 354 -388 394
-64 13 -8177 13 -8282 0z m5975 -1989 c-550 -550 -1002 -995 -1004 -989 -2 6
18 234 45 506 43 448 47 501 36 565 -58 339 -429 519 -734 356 -117 -62 -221
-201 -247 -330 -10 -47 -204 -2004 -233 -2350 -14 -165 -5 -230 48 -335 81
-160 261 -273 434 -273 30 0 309 25 620 55 311 30 727 71 925 90 198 19 479
47 625 61 146 14 290 32 320 40 219 62 370 259 370 484 0 208 -132 394 -332
468 -112 42 -132 41 -970 -44 -86 -8 -166 -14 -177 -12 -17 2 192 216 979
1003 l1000 1000 0 -3425 c0 -3043 -2 -3432 -15 -3485 -49 -189 -199 -336 -383
-374 -38 -8 -1015 -11 -3472 -11 -1881 0 -3420 1 -3420 3 0 11 1996 1995 1999
1986 2 -6 -18 -234 -45 -506 -43 -448 -46 -502 -36 -566 49 -285 338 -474 615
-402 179 47 331 203 366 377 14 66 241 2400 241 2472 0 253 -234 486 -487 486
-29 0 -443 -38 -920 -85 -477 -46 -1012 -98 -1188 -115 -348 -34 -408 -45
-496 -91 -70 -38 -167 -136 -202 -205 -156 -307 28 -668 368 -725 62 -11 118
-7 505 31 531 51 577 55 567 44 -4 -5 -454 -456 -1000 -1002 l-992 -993 -3
3423 c-2 3042 0 3429 13 3483 47 183 190 327 368 371 41 10 775 12 3482 13
l3430 1 -1000 -1000z"/>
</g>
</svg>
